<svg width="1366" height="43" viewBox="0 0 1366 43" fill="none" xmlns="http://www.w3.org/2000/svg">
<g filter="url(#filter0_d_1_27)">
<path d="M1366 0.0710449V21.7425C1360.08 21.0466 1354.4 20.0525 1348.24 19.7543C1344.93 19.5554 1342.32 19.1578 1339.72 18.3625C1335.22 16.9708 1330.49 16.0761 1324.33 16.7719C1317.47 17.5672 1311.55 19.0584 1303.73 19.0584C1294.97 19.0584 1285.74 20.0525 1276.98 20.9472C1272.25 21.4442 1268.22 21.0466 1263.96 20.0525C1257.57 18.5613 1250.94 18.5613 1243.6 19.1578C1233.89 19.9531 1223.95 21.9413 1214.01 19.456C1212.35 19.0584 1209.74 19.0584 1207.85 19.3566C1202.41 20.1519 1196.96 19.9531 1191.51 20.1519C1183.7 20.4501 1175.89 21.146 1167.84 20.6489C1165.71 20.5495 1161.92 20.8478 1161.21 21.4442C1156.95 24.7248 1150.08 25.2218 1142.27 25.52C1139.43 25.6195 1136.82 25.8183 1134.69 25.023C1133.04 24.4265 1131.14 24.2277 1129.01 24.2277C1123.57 24.1283 1118.12 23.8301 1112.68 23.7307C1108.18 23.6312 1104.15 24.1283 1101.08 25.7189C1099.66 26.5141 1097.76 26.713 1095.63 26.9118C1090.66 27.3094 1085.92 26.8124 1081.66 25.7189C1078.58 25.023 1075.98 25.023 1072.67 25.1224C1064.85 25.52 1056.8 25.6195 1048.99 26.0171C1043.55 26.3153 1038.34 25.2218 1033.13 25.4206C1023.89 25.8183 1014.9 25.8183 1005.9 24.7248C998.089 23.8301 989.092 24.4265 981.99 22.2395C981.28 22.0407 980.333 22.2395 979.622 22.2395C976.071 22.4383 972.52 22.6371 968.969 21.9413C967.311 21.5436 965.181 21.8419 964.234 22.4383C961.156 24.3271 957.605 23.9295 953.817 22.9354C952.396 22.5377 950.975 22.7366 949.318 22.6371C938.664 22.4383 927.774 23.4324 917.12 22.0407C910.491 21.146 903.389 22.2395 896.76 21.146C895.576 20.9472 894.155 21.3448 892.735 21.3448C888.947 21.5436 887.053 23.333 883.975 23.333C873.321 23.5318 862.904 23.8301 853.434 26.1165C852.487 26.3153 851.067 26.3153 849.883 26.2159C843.964 25.6195 838.282 26.4147 832.6 27.0112C826.681 27.5082 820.763 28.2041 814.844 27.8065C811.056 27.5082 808.215 26.713 803.716 27.1106C795.193 28.0053 786.434 28.6018 778.384 30.1923C774.833 30.8882 771.518 31.087 767.967 30.9876C766.547 30.9876 765.363 30.9876 763.942 31.087C755.656 31.6835 747.37 33.1746 738.61 32.3793C736.716 32.1805 735.295 32.777 733.638 32.9758C728.43 33.6717 722.984 34.6658 717.302 33.6717C713.514 33.0752 709.963 32.8764 705.938 32.777C691.023 32.5782 677.055 30.6894 663.56 28.2041C660.009 27.6077 657.168 27.6077 653.853 28.0053C649.592 28.5023 645.804 29.4964 641.542 29.6953C634.913 29.9935 628.284 29.5959 621.892 28.6018C620.234 28.3035 617.867 27.8065 616.446 28.4029C611.475 30.1923 606.976 29.1982 602.241 28.4029C596.559 27.3094 591.351 27.9059 586.853 29.8941C585.195 30.6894 583.065 31.087 580.46 31.087C572.411 31.2858 564.598 31.9817 557.732 33.8705C555.602 34.3675 553.234 35.3616 550.156 34.8646C542.343 33.6717 533.347 34.3675 525.771 32.5782C521.273 31.4847 517.484 31.3852 512.039 32.4788C503.516 34.2681 494.283 33.6717 485.523 31.6835C480.551 30.4905 475.816 28.7012 469.187 29.9935C468.951 30.0929 468.24 29.8941 467.767 29.7947C463.269 28.4029 457.35 28.0053 452.852 26.5141C443.382 23.2336 432.491 22.1401 420.417 23.8301C419.47 23.9295 418.286 23.8301 417.339 23.8301C408.579 23.2336 399.109 23.9295 390.586 22.4383C390.113 22.3389 389.166 22.4383 388.692 22.5377C386.561 23.333 384.194 23.0348 381.826 22.9354C377.091 22.836 372.593 22.6371 367.858 22.5377C360.519 22.3389 354.837 24.2277 348.444 25.2218C345.13 25.7189 341.815 26.3153 338.501 25.8183C329.504 24.6253 320.745 23.333 311.985 21.7425C308.197 21.0466 304.172 21.5436 300.384 20.7484C290.204 18.5613 279.076 17.9649 267.476 18.4619C260.373 18.7602 253.034 19.3566 245.931 17.9649C242.853 17.3684 238.829 16.8714 235.277 17.0702C227.228 17.5672 219.415 18.0643 211.366 18.1637C204.737 18.2631 198.108 19.6548 191.479 18.1637C188.164 17.4678 185.086 18.1637 182.245 18.8596C173.722 20.7484 165.199 22.3389 155.019 21.9413C150.521 21.8419 146.496 21.3448 142.234 20.8478C139.393 20.5495 136.316 20.3507 134.895 21.643C133.001 23.333 129.923 23.4324 126.609 23.4324C122.584 23.4324 118.559 23.333 114.534 23.4324C107.905 23.7307 101.75 23.7307 95.3576 22.7366C90.6226 21.9413 85.8876 20.7484 80.6791 21.146C77.3646 21.3448 74.05 21.146 70.9723 20.7484C64.1065 19.9531 56.5305 19.456 50.375 20.5495C36.8801 23.1342 22.2016 23.0348 8.70679 24.7248C5.39227 25.1224 2.07776 24.9236 -1 24.7248V0.0710449H1366Z" fill="white"/>
</g>
<defs>
<filter id="filter0_d_1_27" x="-5" y="0.0710449" width="1375" height="42.929" filterUnits="userSpaceOnUse" color-interpolation-filters="sRGB">
<feFlood flood-opacity="0" result="BackgroundImageFix"/>
<feColorMatrix in="SourceAlpha" type="matrix" values="0 0 0 0 0 0 0 0 0 0 0 0 0 0 0 0 0 0 127 0" result="hardAlpha"/>
<feOffset dy="4"/>
<feGaussianBlur stdDeviation="2"/>
<feColorMatrix type="matrix" values="0 0 0 0 0 0 0 0 0 0 0 0 0 0 0 0 0 0 0.25 0"/>
<feBlend mode="normal" in2="BackgroundImageFix" result="effect1_dropShadow_1_27"/>
<feBlend mode="normal" in="SourceGraphic" in2="effect1_dropShadow_1_27" result="shape"/>
</filter>
</defs>
</svg>
