<svg viewBox="0 0 300 30" fill="none" xmlns="http://www.w3.org/2000/svg">
<path d="M0 483H320V38.5V25.5C314.433 23.6462 311.062 24.591 305.454 25.04L305.453 25.0401C304.639 25.1053 303.828 25.1703 303.02 25.2279C292.607 25.9861 282.62 25.0763 273.482 21.7401C271.714 21.1094 269.889 21.0115 268.066 20.9138C266.383 20.8235 264.702 20.7333 263.069 20.2237C255.207 17.7974 247.344 15.826 239.269 14.0063C236.542 13.3112 233.815 14.0178 231.087 14.7245C230.839 14.7887 230.591 14.8529 230.344 14.9161C228.622 15.3711 226.958 15.9488 225.294 16.5266C221.412 17.8747 217.53 19.2228 212.918 19.0105C210.793 18.9347 208.721 18.8209 206.649 18.7072C204.578 18.5935 202.506 18.4797 200.381 18.4039C200.05 18.3804 199.72 18.3495 199.391 18.3187C197.6 18.1512 195.833 17.9859 194.218 19.0105C193.793 19.1621 192.943 19.3138 192.518 19.1621C187.712 17.7331 182.57 17.6208 177.462 17.5092C174.439 17.4432 171.428 17.3774 168.505 17.0391C168.229 17.0391 167.931 17.0232 167.625 17.0068C166.988 16.9726 166.316 16.9367 165.742 17.0391C154.905 19.6171 145.129 17.949 136.629 12.9447C134.533 11.7638 132.093 11.0324 129.666 10.3051L129.666 10.305C127.419 9.63145 125.183 8.9612 123.241 7.94049C123.16 7.91129 123.07 7.87647 122.977 7.84035C122.587 7.68891 122.138 7.51476 121.966 7.6372C116.941 9.30209 113.129 7.61409 109.377 5.95288L109.376 5.95247L109.375 5.95229C108.685 5.64671 107.997 5.34196 107.304 5.05926C99.4409 2.02638 91.1533 1.11652 83.5032 3.84611C78.6155 5.51419 75.2155 5.36254 71.1779 3.69446C67.3182 2.14518 63.0478 1.81722 58.7941 1.49054C55.5533 1.24166 52.3223 0.993522 49.29 0.206647C47.0908 -0.396925 45.2957 0.440903 43.6902 1.19025L43.6887 1.19094C43.2778 1.38269 42.8795 1.56862 42.4898 1.72309C36.3271 4.60432 29.3145 5.66582 22.0894 5.96911C19.7518 5.96911 17.8393 6.57569 16.3518 7.78884C12.3142 10.8217 7.6391 11.7316 2.539 10.0635C2.21362 9.97062 1.88953 9.87597 1.56635 9.78157L1.55884 9.77939C1.03714 9.62702 0.517909 9.47536 0 9.33303V483Z" fill="#FFCB66"/>
</svg>
