<svg viewBox="0 0 768 33" fill="none" xmlns="http://www.w3.org/2000/svg">
<path d="M0 33.3501L2.53493e-06 12.6583C3.32525 13.3227 6.51749 14.2719 9.97576 14.5566C11.8379 14.7465 13.3011 15.1261 14.7642 15.8855C17.2914 17.2143 19.9516 18.0685 23.4098 17.4041C27.2671 16.6448 30.5924 15.221 34.9817 15.221C39.9031 15.221 45.0905 14.2719 50.0118 13.4176C52.672 12.943 54.9332 13.3227 57.3274 14.2719C60.9186 15.6956 64.6429 15.6956 68.7662 15.1261C74.2196 14.3668 79.806 12.4685 85.3925 14.8414C86.3235 15.221 87.7867 15.221 88.8507 14.9363C91.91 14.177 94.9692 14.3668 98.0284 14.177C102.418 13.8922 106.807 13.2278 111.329 13.7024C112.527 13.7973 114.655 13.5125 115.054 12.943C117.448 9.8108 121.305 9.33622 125.695 9.05147C127.291 8.95655 128.754 8.76672 129.951 9.52605C130.882 10.0956 131.946 10.2854 133.143 10.2854C136.202 10.3803 139.262 10.6651 142.321 10.76C144.848 10.8549 147.109 10.3803 148.838 8.86164C149.636 8.10231 150.7 7.91248 151.897 7.72264C154.691 7.34298 157.351 7.81756 159.745 8.86164C161.474 9.52606 162.937 9.52606 164.799 9.43114C169.189 9.05147 173.711 8.95656 178.1 8.57689C181.16 8.29214 184.086 9.33622 187.012 9.14639C192.2 8.76673 197.254 8.76673 202.308 9.81081C206.698 10.6651 211.752 10.0956 215.742 12.1837C216.141 12.3736 216.673 12.1837 217.072 12.1837C219.068 11.9939 221.063 11.8041 223.058 12.4685C223.989 12.8481 225.186 12.5634 225.718 11.9939C227.447 10.1905 229.442 10.5701 231.571 11.5193C232.369 11.899 233.167 11.7091 234.098 11.8041C240.083 11.9939 246.202 11.0447 252.187 12.3736C255.911 13.2278 259.902 12.1837 263.626 13.2278C264.291 13.4176 265.089 13.038 265.887 13.038C268.015 12.8481 269.079 11.1396 270.809 11.1396C276.794 10.9498 282.646 10.6651 287.967 8.48198C288.499 8.29215 289.297 8.29215 289.962 8.38707C293.287 8.95657 296.479 8.19723 299.672 7.62773C302.997 7.15315 306.322 6.48874 309.647 6.8684C311.776 7.15315 313.372 7.91248 315.899 7.53282C320.687 6.67857 325.609 6.10907 330.131 4.59041C332.126 3.926 333.988 3.73616 335.983 3.83108C336.781 3.83108 337.447 3.83108 338.245 3.73616C342.9 3.16666 347.555 1.74292 352.477 2.50225C353.541 2.69208 354.339 2.12258 355.27 1.93275C358.196 1.26834 361.255 0.319172 364.448 1.26834C366.576 1.83784 368.571 2.02767 370.832 2.12258C379.212 2.31242 387.059 4.11583 394.641 6.48874C396.636 7.05824 398.232 7.05824 400.094 6.67858C402.488 6.20399 404.617 5.25483 407.011 5.065C410.735 4.78025 414.459 5.15991 418.051 6.10908C418.982 6.39383 420.312 6.86841 421.11 6.29891C423.903 4.59042 426.43 5.53958 429.09 6.29891C432.283 7.34299 435.209 6.7735 437.736 4.87517C438.667 4.11583 439.864 3.73617 441.327 3.73617C445.85 3.54634 450.239 2.88192 454.096 1.07851C455.293 0.603926 456.624 -0.345239 458.353 0.129344C462.742 1.26834 467.796 0.603926 472.053 2.31242C474.58 3.3565 476.708 3.45142 479.767 2.40734C484.556 0.698846 489.743 1.26834 494.664 3.16667C497.458 4.30567 500.118 6.01417 503.842 4.78025C503.975 4.68534 504.374 4.87517 504.64 4.97009C507.167 6.29892 510.493 6.67858 513.02 8.10233C518.34 11.2346 524.459 12.2787 531.242 10.6651C531.774 10.5702 532.439 10.6651 532.971 10.6651C537.893 11.2346 543.213 10.5702 548.001 11.9939C548.267 12.0888 548.799 11.9939 549.065 11.899C550.263 11.1397 551.593 11.4244 552.923 11.5193C555.583 11.6142 558.11 11.8041 560.77 11.899C564.894 12.0888 568.086 10.2854 571.677 9.33625C573.539 8.86167 575.401 8.29217 577.264 8.76675C582.318 9.90575 587.239 11.1397 592.161 12.6583C594.289 13.3227 596.55 12.8482 598.678 13.6075C604.398 15.6957 610.649 16.2652 617.167 15.7906C621.157 15.5058 625.28 14.9363 629.271 16.2652C631 16.8347 633.261 17.3092 635.256 17.1194C639.778 16.6448 644.168 16.1702 648.69 16.0753C652.414 15.9804 656.139 14.6516 659.863 16.0753C661.725 16.7397 663.454 16.0753 665.05 15.4109C669.839 13.6075 674.627 12.0888 680.346 12.4685C682.874 12.5634 685.135 13.038 687.529 13.5126C689.125 13.7973 690.854 13.9872 691.652 12.7532C692.716 11.1397 694.445 11.0448 696.308 11.0448C698.569 11.0448 700.83 11.1397 703.091 11.0448C706.815 10.76 710.274 10.76 713.865 11.7092C716.525 12.4685 719.185 13.6075 722.112 13.2278C723.974 13.038 725.836 13.2278 727.565 13.6075C731.422 14.3668 735.679 14.8414 739.137 13.7973C746.718 11.3295 754.965 11.4244 762.547 9.81084C764.409 9.43118 766.271 9.62101 768 9.81084V33.3501L0 33.3501Z" fill="#FFCB66"/>
</svg>
