<svg viewBox="0 0 768 28" fill="white" xmlns="http://www.w3.org/2000/svg">
<path d="M811.6 0.0568848V17.394C806.865 16.8373 802.319 16.042 797.395 15.8035C794.743 15.6444 792.66 15.3263 790.576 14.6901C786.978 13.5767 783.19 12.8609 778.265 13.4176C772.773 14.0538 768.038 15.2468 761.787 15.2468C754.78 15.2468 747.393 16.042 740.385 16.7578C736.597 17.1554 733.377 16.8373 729.968 16.042C724.854 14.8491 719.551 14.8491 713.68 15.3263C705.914 15.9625 697.959 17.5531 690.005 15.5649C688.679 15.2468 686.595 15.2468 685.08 15.4853C680.724 16.1216 676.368 15.9625 672.012 16.1216C665.761 16.3601 659.511 16.9168 653.071 16.5192C651.367 16.4397 648.336 16.6783 647.768 17.1554C644.359 19.7799 638.866 20.1775 632.616 20.4161C630.343 20.4956 628.26 20.6547 626.555 20.0184C625.23 19.5413 623.714 19.3822 622.01 19.3822C617.654 19.3027 613.297 19.0641 608.941 18.9846C605.342 18.905 602.123 19.3027 599.66 20.5751C598.524 21.2114 597.009 21.3704 595.304 21.5295C591.327 21.8476 587.539 21.4499 584.13 20.5751C581.667 20.0184 579.584 20.0184 576.932 20.098C570.682 20.4161 564.243 20.4956 557.992 20.8137C553.636 21.0523 549.469 20.1775 545.302 20.3366C537.916 20.6547 530.719 20.6547 523.521 19.7799C517.271 19.0641 510.074 19.5413 504.392 17.7917C503.824 17.6326 503.066 17.7917 502.498 17.7917C499.657 17.9507 496.816 18.1098 493.975 17.5531C492.649 17.235 490.944 17.4735 490.187 17.9507C487.725 19.4617 484.884 19.1436 481.853 18.3484C480.717 18.0302 479.58 18.1893 478.255 18.1098C469.732 17.9507 461.019 18.746 452.496 17.6326C447.193 16.9168 441.511 17.7917 436.208 16.9168C435.261 16.7578 434.124 17.0759 432.988 17.0759C429.957 17.235 428.442 18.6665 425.98 18.6665C417.457 18.8255 409.123 19.0641 401.547 20.8933C400.79 21.0523 399.653 21.0523 398.706 20.9728C393.971 20.4956 389.426 21.1318 384.88 21.609C380.145 22.0066 375.41 22.5633 370.675 22.2452C367.645 22.0066 365.372 21.3704 361.773 21.6885C354.955 22.4043 347.947 22.8815 341.507 24.1539C338.666 24.7106 336.015 24.8697 333.174 24.7901C332.037 24.7901 331.09 24.7901 329.954 24.8697C323.325 25.3468 316.696 26.5397 309.688 25.9035C308.173 25.7445 307.036 26.2216 305.711 26.3807C301.544 26.9374 297.187 27.7327 292.642 26.9374C289.611 26.4602 286.77 26.3012 283.551 26.2216C271.618 26.0626 260.444 24.5515 249.648 22.5633C246.807 22.0862 244.534 22.0862 241.882 22.4043C238.473 22.8019 235.443 23.5972 232.034 23.7563C226.73 23.9948 221.427 23.6767 216.313 22.8815C214.988 22.6429 213.094 22.2452 211.957 22.7224C207.98 24.1539 204.381 23.3586 200.593 22.7224C196.047 21.8476 191.881 22.3248 188.282 23.9153C186.956 24.5515 185.252 24.8697 183.168 24.8697C176.729 25.0287 170.478 25.5854 164.986 27.0964C163.281 27.4941 161.387 28.2894 158.925 27.8917C152.675 26.9374 145.477 27.4941 139.417 26.0626C135.818 25.1878 132.788 25.1082 128.431 25.983C121.613 27.4146 114.226 26.9374 107.219 25.3468C103.241 24.3925 99.4531 22.961 94.1499 23.9948C93.9605 24.0744 93.3923 23.9153 93.0135 23.8358C89.4149 22.7224 84.6798 22.4043 81.0812 21.2114C73.5052 18.5869 64.7928 17.7121 55.1333 19.0641C54.3757 19.1436 53.4287 19.0641 52.6711 19.0641C45.6633 18.5869 38.0872 19.1436 31.2688 17.9507C30.89 17.8712 30.1324 17.9507 29.7536 18.0302C28.049 18.6665 26.155 18.4279 24.261 18.3484C20.473 18.2688 16.8744 18.1098 13.0864 18.0302C7.21494 17.8712 2.66934 19.3822 -2.44449 20.1775C-5.0961 20.5751 -7.74774 21.0523 -10.3994 20.6547C-17.5966 19.7003 -24.6044 18.6665 -31.6122 17.394C-34.6426 16.8373 -37.8624 17.235 -40.8929 16.5987C-49.0371 14.8491 -57.9389 14.3719 -67.2196 14.7696C-72.9016 15.0082 -78.773 15.4853 -84.455 14.3719C-86.9172 13.8948 -90.137 13.4971 -92.9781 13.6562C-99.4177 14.0538 -105.668 14.4515 -112.108 14.531C-117.411 14.6105 -122.714 15.7239 -128.017 14.531C-130.669 13.9743 -133.131 14.531 -135.404 15.0877C-142.222 16.5987 -149.041 17.8712 -157.185 17.5531C-160.784 17.4735 -164.003 17.0759 -167.413 16.6783C-169.685 16.4397 -172.148 16.2806 -173.284 17.3145C-174.799 18.6665 -177.261 18.746 -179.913 18.746C-183.133 18.746 -186.353 18.6665 -189.572 18.746C-194.876 18.9846 -199.8 18.9846 -204.914 18.1893C-208.702 17.5531 -212.49 16.5987 -216.657 16.9168C-219.308 17.0759 -221.96 16.9168 -224.422 16.5987C-229.915 15.9625 -235.976 15.5649 -240.9 16.4397C-251.696 18.5074 -263.439 18.4279 -274.235 19.7799C-276.886 20.098 -279.538 19.9389 -282 19.7799V0.0568848H811.6Z" fill="white"/>
</svg>