<svg class="position-absolute top-100 start-0 w-100 d-block d-md-none" width="320" height="21" viewBox="0 0 320 21" fill="white" xmlns="http://www.w3.org/2000/svg">
<path d="M553.275 0.562256V12.6785C549.966 12.2895 546.789 11.7337 543.348 11.5669C541.495 11.4558 540.038 11.2334 538.582 10.7888C536.068 10.0107 533.42 9.5105 529.979 9.89955C526.14 10.3442 522.831 11.1779 518.463 11.1779C513.565 11.1779 508.403 11.7337 503.506 12.2339C500.858 12.5118 498.608 12.2895 496.226 11.7337C492.652 10.9 488.946 10.9 484.842 11.2335C479.415 11.6781 473.856 12.7897 468.297 11.4002C467.37 11.1779 465.914 11.1779 464.855 11.3446C461.811 11.7892 458.766 11.6781 455.722 11.7892C451.354 11.956 446.986 12.345 442.486 12.0671C441.294 12.0116 439.176 12.1783 438.779 12.5118C436.397 14.3459 432.558 14.6238 428.19 14.7905C426.602 14.8461 425.146 14.9573 423.954 14.5126C423.028 14.1791 421.969 14.068 420.778 14.068C417.733 14.0124 414.689 13.8457 411.645 13.7901C409.13 13.7345 406.879 14.0124 405.159 14.9017C404.364 15.3463 403.306 15.4575 402.114 15.5686C399.335 15.7909 396.687 15.513 394.305 14.9017C392.584 14.5126 391.128 14.5126 389.275 14.5682C384.907 14.7905 380.406 14.8461 376.038 15.0684C372.994 15.2351 370.082 14.6238 367.17 14.7349C362.008 14.9573 356.978 14.9573 351.948 14.3459C347.58 13.8457 342.55 14.1791 338.579 12.9564C338.182 12.8452 337.653 12.9564 337.255 12.9564C335.27 13.0676 333.284 13.1787 331.299 12.7897C330.372 12.5673 329.181 12.7341 328.652 13.0676C326.931 14.1236 324.945 13.9012 322.828 13.3455C322.033 13.1231 321.239 13.2343 320.313 13.1787C314.356 13.0676 308.268 13.6234 302.311 12.8452C298.605 12.345 294.634 12.9564 290.928 12.345C290.266 12.2339 289.472 12.4562 288.678 12.4562C286.56 12.5673 285.501 13.5678 283.78 13.5678C277.824 13.6789 272 13.8457 266.705 15.124C266.175 15.2351 265.381 15.2351 264.719 15.1796C261.41 14.8461 258.234 15.2907 255.057 15.6242C251.748 15.9021 248.439 16.2912 245.129 16.0688C243.012 15.9021 241.423 15.4575 238.908 15.6798C234.143 16.18 229.246 16.5135 224.745 17.4027C222.76 17.7918 220.907 17.9029 218.921 17.8474C218.127 17.8474 217.465 17.8474 216.671 17.9029C212.038 18.2364 207.405 19.0701 202.508 18.6255C201.449 18.5143 200.655 18.8478 199.728 18.959C196.816 19.348 193.772 19.9038 190.595 19.348C188.477 19.0145 186.492 18.9034 184.242 18.8478C175.903 18.7366 168.093 17.6806 160.548 16.2912C158.563 15.9577 156.974 15.9577 155.121 16.18C152.739 16.4579 150.621 17.0137 148.238 17.1248C144.532 17.2916 140.826 17.0693 137.252 16.5135C136.326 16.3467 135.002 16.0688 134.208 16.4023C131.428 17.4027 128.913 16.8469 126.266 16.4023C123.089 15.7909 120.177 16.1244 117.662 17.236C116.736 17.6806 115.544 17.9029 114.088 17.9029C109.588 18.0141 105.22 18.4032 101.381 19.4592C100.19 19.7371 98.8662 20.2929 97.1455 20.015C92.7775 19.348 87.7476 19.7371 83.5119 18.7366C80.997 18.1253 78.8792 18.0697 75.8347 18.6811C71.0696 19.6815 65.9074 19.348 61.0099 18.2364C58.2302 17.5695 55.5829 16.569 51.8767 17.2916C51.7444 17.3472 51.3472 17.236 51.0825 17.1804C48.5676 16.4023 45.2585 16.18 42.7435 15.3463C37.4489 13.5122 31.3601 12.9008 24.6095 13.8457C24.0801 13.9012 23.4182 13.8457 22.8888 13.8457C17.9913 13.5122 12.6967 13.9012 7.93155 13.0676C7.66681 13.012 7.13737 13.0676 6.87263 13.1231C5.68135 13.5678 4.3577 13.401 3.03404 13.3455C0.386749 13.2899 -2.12817 13.1787 -4.77547 13.1231C-8.87878 13.012 -12.0555 14.068 -15.6294 14.6238C-17.4825 14.9017 -19.3356 15.2351 -21.1887 14.9573C-26.2186 14.2903 -31.1161 13.5678 -36.0136 12.6785C-38.1314 12.2895 -40.3816 12.5673 -42.4995 12.1227C-48.1912 10.9 -54.4123 10.5665 -60.8982 10.8444C-64.8691 11.0111 -68.9725 11.3446 -72.9434 10.5665C-74.6641 10.233 -76.9144 9.95513 -78.8998 10.0663C-83.4002 10.3442 -87.7683 10.6221 -92.2687 10.6777C-95.9749 10.7332 -99.6811 11.5113 -103.387 10.6777C-105.24 10.2886 -106.961 10.6777 -108.55 11.0667C-113.315 12.1227 -118.08 13.012 -123.772 12.7897C-126.286 12.7341 -128.537 12.4562 -130.919 12.1783C-132.508 12.0116 -134.228 11.9004 -135.023 12.6229C-136.081 13.5678 -137.802 13.6234 -139.655 13.6234C-141.906 13.6234 -144.156 13.5678 -146.406 13.6234C-150.112 13.7901 -153.554 13.7901 -157.127 13.2343C-159.775 12.7897 -162.422 12.1227 -165.334 12.345C-167.187 12.4562 -169.04 12.345 -170.761 12.1227C-174.6 11.6781 -178.835 11.4002 -182.277 12.0116C-189.822 13.4566 -198.028 13.401 -205.573 14.3459C-207.426 14.5682 -209.279 14.457 -211 14.3459V0.562256H553.275Z" fill="white"/>
</svg>